# xmcd
#
# Track frame offsets:
#	150
#	17617
#	39402
#	61345
#	82687
#	89742
#	115007
#	134757
#	154760
#	173512
#	197152
#	221615
#	240400
#	264657
#	271910
#	292645
#
# Disc length: 4232 seconds
#
# Revision: 8
# Processed by: cddbd v1.5.2PL0 Copyright (c) Steve Scherf et al.
# Submitted via: EZCDAudioConverter 1.0.8.1
#
DISCID=d2108610
DTITLE=Montell Jordan - Let's Ride
DYEAR=1998
DGENRE=R&B
TTITLE0=When You Get Home
TTITLE1=Don't Call Me
TTITLE2=Let's Ride (f/Master P and Silkk The Shocker)
TTITLE3=I Can Do That
TTITLE4=Midnight Rain (Interlude)
TTITLE5=One Last Chance
TTITLE6=Anything And Everything (f/Redman)
TTITLE7=Body Ah (f/Lil' Bo Peep)
TTITLE8=Irresistible
TTITLE9=Let's Ride (Beats By The Pound/Master P remix)
TTITLE10=Can I?
TTITLE11=Missing You
TTITLE12=The Longest Night
TTITLE13=I Say Yes (Interlude)(f/Pastor Clarence &McClendon)
TTITLE14=4 You (f/Schappell Crawford and fulfillment Choir)
TTITLE15=I Say Yes
EXTD=
EXTT0=
EXTT1=
EXTT2=
EXTT3=
EXTT4=
EXTT5=
EXTT6=
EXTT7=
EXTT8=
EXTT9=
EXTT10=
EXTT11=
EXTT12=
EXTT13=
EXTT14=
EXTT15=
PLAYORDER=
